# xmcd CD database file
#
# Track frame offsets:
#	150
#	17094
#	35080
#	51864
#	81329
#	105588
#	125163
#	148869
#	163506
#
# Disc length: 2450 seconds
#
# Revision: 1
# Processed by: cddbd v1.5.2PL0 Copyright (c) Steve Scherf et al.
# Submitted via: CDex 1.70beta2
#
DISCID=7d099009
DTITLE=Spanish Connection with Flamenco STRINGS - ELEGANT MARKING
DYEAR=2012
DGENRE=Jazz
TTITLE0=Flamenco De Las Estrellas 星のフラメンコ
TTITLE1=LUPIN the THIRD ルパン三世のテーマ
TTITLE2=The Sword of Love 新・三銃士のテーマ
TTITLE3=Farruca de Athos アトスのファルーカ
TTITLE4=予期せぬ出来事
TTITLE5=Ciudad De La Luz 陽光の街
TTITLE6=愛しくもせつなく
TTITLE7=Capricho Arabe アラビア風綺想曲
TTITLE8=Piazzollumba ピアソルンバ
EXTD=YEAR: 2012
EXTT0=
EXTT1=
EXTT2=
EXTT3=
EXTT4=
EXTT5=
EXTT6=
EXTT7=
EXTT8=
PLAYORDER=
